<svg xmlns="http://www.w3.org/2000/svg" viewBox="0 0 512 512">
  <rect width="512" height="512" rx="112" fill="#172119"/>
  <!-- Body -->
  <ellipse cx="230" cy="320" rx="128" ry="90" fill="#4EC466" stroke="#163A18" stroke-width="18"/>
  <ellipse cx="230" cy="342" rx="80" ry="58" fill="#A0D870"/>
  <!-- Dorsal ridge -->
  <path d="M128 256 L155 218 L180 256 L205 218 L230 256 L255 218 L295 256" stroke="#163A18" stroke-width="16" stroke-linecap="round" stroke-linejoin="round" fill="none"/>
  <!-- Tail -->
  <path d="M104 318 C40 318 26 384 64 410 C102 436 78 486 120 468" stroke="#163A18" stroke-width="28" stroke-linecap="round" fill="none"/>
  <!-- Head -->
  <circle cx="345" cy="270" r="108" fill="#4EC466" stroke="#163A18" stroke-width="18"/>
  <!-- Head crest -->
  <path d="M270 180 Q306 124 345 162 Q380 110 422 162" stroke="#163A18" stroke-width="20" stroke-linecap="round" fill="none"/>
  <!-- Iconic eye -->
  <circle cx="392" cy="204" r="70" fill="#E8F4D8" stroke="#163A18" stroke-width="16"/>
  <circle cx="406" cy="192" r="44" fill="#163A18"/>
  <circle cx="424" cy="174" r="16" fill="rgba(255,255,255,0.85)"/>
  <!-- Nostril -->
  <circle cx="455" cy="270" r="10" fill="#163A18"/>
  <!-- Smile -->
  <path d="M428 296 Q452 332 476 296" stroke="#163A18" stroke-width="14" stroke-linecap="round" fill="none"/>
  <!-- Legs -->
  <path d="M282 384 L270 460 M270 460 L244 478 M270 460 L296 478" stroke="#163A18" stroke-width="20" stroke-linecap="round"/>
  <path d="M180 384 L168 460 M168 460 L142 478 M168 460 L194 478" stroke="#163A18" stroke-width="20" stroke-linecap="round"/>
</svg>
